<?xml version="1.0" encoding="utf-8"?>
<svg viewBox="0 0 500 500" xmlns="http://www.w3.org/2000/svg" xmlns:bx="https://boxy-svg.com">
  <defs>
    <style bx:fonts="Fira Sans Condensed">@import url(https://fonts.googleapis.com/css2?family=Fira+Sans+Condensed%3Aital%2Cwght%400%2C100%3B0%2C200%3B0%2C300%3B0%2C400%3B0%2C500%3B0%2C600%3B0%2C700%3B0%2C800%3B0%2C900%3B1%2C100%3B1%2C200%3B1%2C300%3B1%2C400%3B1%2C500%3B1%2C600%3B1%2C700%3B1%2C800%3B1%2C900&amp;display=swap);</style>
  </defs>
  <path d="M 438.039 200.836 C 438.039 309.944 351.365 398.393 244.446 398.393 C 137.527 398.393 50.853 309.944 50.853 200.836 C 50.853 91.727 137.527 3.278 244.446 3.278 C 351.365 3.278 438.039 91.727 438.039 200.836 Z M 400.57 200.836 L 400.567 200.611 L 380.221 218.727 L 331.293 172.125 L 344.137 104.928 L 370.915 107.375 C 351.486 80.118 324.074 59.508 292.299 49.111 L 302.956 74.553 L 244.446 107.633 L 185.936 74.554 L 196.593 49.111 C 164.875 59.49 137.438 80.075 117.977 107.376 L 144.96 104.928 L 157.599 172.125 L 108.672 218.727 L 88.326 200.611 L 88.323 200.836 C 88.323 235.102 98.859 267.712 118.355 294.828 L 124.369 267.825 L 190.829 276.147 L 219.167 338.144 L 195.825 352.312 C 227.207 362.765 261.623 362.786 293.068 352.312 L 269.726 338.144 L 298.063 276.147 L 364.523 267.825 L 370.537 294.828 C 390.034 267.712 400.57 235.102 400.57 200.836 Z M 206.897 256.256 L 183.561 183.517 L 244.446 138.487 L 305.331 183.517 L 282.208 256.256 L 206.897 256.256 Z" style="fill: rgb(250, 250, 250);"/>
  <text style="fill: rgb(250, 250, 250); font-family: &quot;Fira Sans Condensed&quot;; font-size: 11.9px; font-weight: 600; white-space: pre;" transform="matrix(5.605884, 0, 0, 8.939181, -441.284027, -3090.778076)" x="79.09" y="398.166">Clubista Campeão</text>
</svg>