<?xml version="1.0" encoding="utf-8"?>
<svg viewBox="0 0 512 512" xmlns="http://www.w3.org/2000/svg" xmlns:bx="https://boxy-svg.com">
  <defs>
    <style bx:fonts="Fira Sans Condensed">@import url(https://fonts.googleapis.com/css2?family=Fira+Sans+Condensed%3Aital%2Cwght%400%2C100%3B0%2C200%3B0%2C300%3B0%2C400%3B0%2C500%3B0%2C600%3B0%2C700%3B0%2C800%3B0%2C900%3B1%2C100%3B1%2C200%3B1%2C300%3B1%2C400%3B1%2C500%3B1%2C600%3B1%2C700%3B1%2C800%3B1%2C900&amp;display=swap);</style>
  </defs>
  <path d="M 444.046 216.177 C 444.046 325.285 357.372 413.734 250.453 413.734 C 143.534 413.734 56.86 325.285 56.86 216.177 C 56.86 107.068 143.534 18.619 250.453 18.619 C 357.372 18.619 444.046 107.068 444.046 216.177 Z M 406.577 216.177 L 406.574 215.952 L 386.228 234.068 L 337.3 187.466 L 350.144 120.269 L 376.922 122.716 C 357.493 95.459 330.081 74.849 298.306 64.452 L 308.963 89.894 L 250.453 122.974 L 191.943 89.895 L 202.6 64.452 C 170.882 74.831 143.445 95.416 123.984 122.717 L 150.967 120.269 L 163.606 187.466 L 114.679 234.068 L 94.333 215.952 L 94.33 216.177 C 94.33 250.443 104.866 283.053 124.362 310.169 L 130.376 283.166 L 196.836 291.488 L 225.174 353.485 L 201.832 367.653 C 233.214 378.106 267.63 378.127 299.075 367.653 L 275.733 353.485 L 304.07 291.488 L 370.53 283.166 L 376.544 310.169 C 396.041 283.053 406.577 250.443 406.577 216.177 Z M 212.904 271.597 L 189.568 198.858 L 250.453 153.828 L 311.338 198.858 L 288.215 271.597 L 212.904 271.597 Z" style="fill: rgb(250, 250, 250);"/>
  <text style="fill: rgb(250, 250, 250); font-family: &quot;Fira Sans Condensed&quot;; font-size: 11.9px; font-weight: 600; white-space: pre;" transform="matrix(4.822015, 0, 0, 8.939181, -338.224945, -3075.436768)" x="79.09" y="398.166">Clubista Campeão</text>
</svg>