<svg width="99" height="70" viewBox="0 0 99 70" fill="none" xmlns="http://www.w3.org/2000/svg">
<path d="M78.061 7.00739H22.3104V62.9926H78.061V7.00739Z" fill="#CF191A"/>
<path d="M50.1865 69.9984C69.435 69.9984 85.039 54.3287 85.039 34.9992C85.039 15.6697 69.435 0 50.1865 0C30.938 0 15.334 15.6697 15.334 34.9992C15.334 54.3287 30.938 69.9984 50.1865 69.9984Z" fill="#CF191A"/>
<path d="M92.6095 17.4774H6.39053C2.86114 17.4774 0 20.3506 0 23.8948V47.9162C0 51.4605 2.86114 54.3336 6.39053 54.3336H92.6095C96.1389 54.3336 99 51.4605 99 47.9162V23.8948C99 20.3506 96.1389 17.4774 92.6095 17.4774Z" fill="#CF191A"/>
<path d="M20.3613 39.037H18.0342C17.9576 39.0514 17.8786 39.0469 17.8041 39.0238C17.7296 39.0006 17.6619 38.9596 17.6067 38.9042C17.5516 38.8489 17.5108 38.7808 17.4877 38.706C17.4647 38.6312 17.4602 38.5519 17.4745 38.475V28.3764C17.4602 28.2994 17.4647 28.2201 17.4877 28.1453C17.5108 28.0705 17.5516 28.0025 17.6067 27.9471C17.6619 27.8917 17.7296 27.8507 17.8041 27.8276C17.8786 27.8044 17.9576 27.7999 18.0342 27.8143H19.6478C19.8233 27.8041 19.9986 27.8373 20.1584 27.9109C20.3182 27.9846 20.4575 28.0964 20.5642 28.2367L23.5738 31.6878V28.3681C23.5594 28.2912 23.5639 28.2119 23.587 28.1371C23.61 28.0623 23.6508 27.9942 23.706 27.9389C23.7611 27.8835 23.8289 27.8425 23.9033 27.8194C23.9778 27.7962 24.0568 27.7917 24.1334 27.8061H26.4605C26.5372 27.7917 26.6162 27.7962 26.6906 27.8194C26.7651 27.8425 26.8329 27.8835 26.888 27.9389C26.9431 27.9942 26.984 28.0623 27.007 28.1371C27.0301 28.2119 27.0346 28.2912 27.0202 28.3681V38.4667C27.0346 38.5437 27.0301 38.623 27.007 38.6978C26.984 38.7726 26.9431 38.8406 26.888 38.896C26.8329 38.9514 26.7651 38.9924 26.6906 39.0155C26.6162 39.0387 26.5372 39.0432 26.4605 39.0288H24.1334C24.0568 39.0432 23.9778 39.0387 23.9033 39.0155C23.8289 38.9924 23.7611 38.9514 23.706 38.896C23.6508 38.8406 23.61 38.7726 23.587 38.6978C23.5639 38.623 23.5594 38.5437 23.5738 38.4667V36.5588L20.921 33.3328V38.475C20.9354 38.5519 20.9308 38.6312 20.9078 38.706C20.8848 38.7808 20.8439 38.8489 20.7888 38.9042C20.7336 38.9596 20.6659 39.0006 20.5914 39.0238C20.5169 39.0469 20.4379 39.0514 20.3613 39.037Z" fill="white"/>
<path d="M38.6279 36.0904C38.6343 36.5332 38.5634 36.9737 38.4184 37.3919C38.2724 37.7902 38.0135 38.1369 37.6738 38.3895C37.2319 38.7038 36.7307 38.9242 36.201 39.037C34.6254 39.3481 33.0045 39.3481 31.4289 39.037C30.8958 38.9252 30.3912 38.7049 29.9463 38.3895C29.6066 38.1369 29.3478 37.7902 29.2017 37.3919C29.0575 36.9735 28.9867 36.5331 28.9922 36.0904V30.7757C28.9862 30.3325 29.0565 29.8916 29.2 29.4725C29.3467 29.0727 29.6053 28.724 29.9446 28.4684C30.3876 28.1475 30.8927 27.9235 31.4273 27.811C33.0029 27.4998 34.6238 27.4998 36.1993 27.811C36.7306 27.9246 37.2322 28.1486 37.6722 28.4684C38.0116 28.724 38.2701 29.0727 38.4168 29.4725C38.5615 29.8908 38.6323 30.3312 38.6263 30.774L38.6279 36.0904ZM32.5139 35.53C32.5121 35.6286 32.532 35.7265 32.5722 35.8165C32.6123 35.9066 32.6718 35.9866 32.7463 36.0509C32.9018 36.1923 33.2586 36.2613 33.8166 36.2613C34.3746 36.2613 34.733 36.1923 34.8885 36.0509C34.963 35.9866 35.0225 35.9066 35.0627 35.8165C35.1028 35.7265 35.1227 35.6286 35.1209 35.53V31.3377C35.1214 31.2414 35.1009 31.1461 35.0608 31.0587C35.0206 30.9712 34.9618 30.8937 34.8885 30.8315C34.7325 30.6902 34.3752 30.6195 33.8166 30.6195C33.258 30.6195 32.9013 30.6902 32.7463 30.8315C32.673 30.8937 32.6142 30.9712 32.5741 31.0587C32.5339 31.1461 32.5134 31.2414 32.5139 31.3377V35.53Z" fill="white"/>
<path d="M45.7827 39.037H40.8732C40.797 39.0441 40.7202 39.036 40.6472 39.0131C40.5742 38.9903 40.5064 38.9532 40.4477 38.9039C40.3488 38.7841 40.3011 38.6299 40.3152 38.4749V36.6524C40.3011 36.4975 40.3488 36.3432 40.4477 36.2235C40.5064 36.1742 40.5742 36.1371 40.6472 36.1142C40.7202 36.0914 40.797 36.0833 40.8732 36.0904H45.0479C45.1052 36.0944 45.1626 36.0846 45.2152 36.0617C45.2679 36.0388 45.3144 36.0036 45.3507 35.9589C45.4211 35.8643 45.4569 35.7482 45.4521 35.6302C45.4627 35.4927 45.4269 35.3555 45.3507 35.2408C45.3128 35.1974 45.2662 35.1626 45.2141 35.1386C45.1619 35.1145 45.1053 35.1017 45.0479 35.1011L42.7208 34.7724C42.0827 34.7041 41.4771 34.455 40.9747 34.0542C40.5383 33.6817 40.3201 33.0583 40.3201 32.1841V30.5489C40.3201 29.6647 40.6048 28.9866 41.1743 28.5144C41.7438 28.0422 42.5299 27.8055 43.5325 27.8044H47.8725C47.9491 27.79 48.0281 27.7945 48.1026 27.8177C48.1771 27.8408 48.2448 27.8818 48.3 27.9372C48.3551 27.9926 48.396 28.0606 48.419 28.1354C48.442 28.2102 48.4466 28.2895 48.4322 28.3665V30.2202C48.4475 30.2975 48.4437 30.3774 48.421 30.4529C48.3984 30.5284 48.3577 30.5971 48.3024 30.6531C48.2472 30.7091 48.1791 30.7506 48.1041 30.7739C48.0292 30.7973 47.9496 30.8019 47.8725 30.7872H44.2624C44.204 30.7838 44.1456 30.7939 44.0917 30.8167C44.0378 30.8395 43.9898 30.8743 43.9515 30.9186C43.8786 31.0123 43.8404 31.1285 43.8434 31.2473C43.8333 31.3761 43.8693 31.5043 43.9449 31.6089C43.9815 31.6576 44.0283 31.6975 44.0821 31.726C44.1358 31.7544 44.1952 31.7705 44.2558 31.7732L46.5682 32.0838C47.208 32.1531 47.8155 32.402 48.3209 32.802C48.766 33.1745 48.9886 33.7979 48.9886 34.6721V36.3073C48.9886 37.1914 48.7017 37.8696 48.1278 38.3418C47.5539 38.814 46.7722 39.0457 45.7827 39.037Z" fill="white"/>
<path d="M55.8095 39.037H53.2942C53.1399 39.0511 52.9863 39.0032 52.8671 38.9039C52.7694 38.7835 52.7224 38.6296 52.7362 38.475V30.8234H50.4549C50.3783 30.8378 50.2993 30.8332 50.2248 30.8101C50.1503 30.787 50.0826 30.7459 50.0274 30.6906C49.9723 30.6352 49.9314 30.5672 49.9084 30.4924C49.8854 30.4176 49.8808 30.3383 49.8952 30.2613V28.3764C49.8808 28.2994 49.8854 28.2201 49.9084 28.1453C49.9314 28.0705 49.9723 28.0025 50.0274 27.9471C50.0826 27.8917 50.1503 27.8507 50.2248 27.8276C50.2993 27.8044 50.3783 27.7999 50.4549 27.8143H58.6489C58.8032 27.8002 58.9567 27.8481 59.076 27.9474C59.1737 28.0678 59.2207 28.2217 59.2069 28.3764V30.2613C59.2216 30.3382 59.2174 30.4175 59.1945 30.4923C59.1717 30.5671 59.131 30.6352 59.076 30.6907C59.021 30.7461 58.9533 30.7871 58.8788 30.8103C58.8044 30.8334 58.7254 30.8379 58.6489 30.8234H56.3676V38.475C56.3819 38.5518 56.3773 38.6309 56.3544 38.7055C56.3314 38.7802 56.2907 38.8481 56.2358 38.9034C56.1809 38.9587 56.1134 38.9998 56.0391 39.0231C55.9648 39.0463 55.886 39.0511 55.8095 39.037Z" fill="white"/>
<path d="M63.6614 39.037H61.2721C61.1955 39.0514 61.1165 39.0469 61.042 39.0237C60.9675 39.0006 60.8998 38.9596 60.8447 38.9042C60.7895 38.8489 60.7487 38.7808 60.7256 38.706C60.7026 38.6312 60.6981 38.5519 60.7124 38.475V28.3764C60.6981 28.2994 60.7026 28.2201 60.7256 28.1453C60.7487 28.0705 60.7895 28.0025 60.8447 27.9471C60.8998 27.8917 60.9675 27.8507 61.042 27.8276C61.1165 27.8044 61.1955 27.7999 61.2721 27.8143H66.4402C67.5988 27.8143 68.398 28.0559 68.8377 28.539C69.2878 29.0576 69.5222 29.7302 69.4923 30.4174V31.134C69.5022 31.5147 69.436 31.8936 69.2975 32.2482C69.2344 32.3973 69.1423 32.5323 69.0265 32.6452C68.9107 32.7581 68.7736 32.8466 68.6233 32.9055C69.1467 32.9494 69.6329 33.1949 69.9799 33.5908C70.3269 33.9852 70.5004 34.51 70.5004 35.1652V38.4684C70.5141 38.623 70.4671 38.777 70.3694 38.8973C70.2502 38.9966 70.0966 39.0445 69.9423 39.0304H67.5366C67.46 39.0449 67.381 39.0403 67.3066 39.0172C67.2321 38.994 67.1643 38.953 67.1092 38.8976C67.054 38.8423 67.0132 38.7742 66.9902 38.6994C66.9671 38.6246 66.9626 38.5453 66.977 38.4684V36.0904C66.9907 35.9117 66.9447 35.7336 66.846 35.5842C66.7868 35.5242 66.7148 35.4782 66.6355 35.4498C66.5562 35.4214 66.4716 35.4111 66.3878 35.4199H64.2195V38.475C64.2332 38.6296 64.1863 38.7835 64.0885 38.9039C63.9693 39.0032 63.8157 39.0511 63.6614 39.037ZM64.2195 30.6229V32.6179H65.383C65.6514 32.6179 65.8331 32.5489 65.9263 32.4076C66.023 32.2516 66.0714 32.0703 66.0654 31.8866V31.3558C66.0714 31.1722 66.023 30.9909 65.9263 30.8349C65.8331 30.6935 65.6514 30.6229 65.383 30.6229H64.2195Z" fill="white"/>
<path d="M75.4099 38.4749C75.4239 38.6299 75.3762 38.7841 75.2773 38.9039C75.2186 38.9532 75.1508 38.9903 75.0778 39.0132C75.0048 39.036 74.928 39.0441 74.8518 39.037H72.5705C72.4939 39.0514 72.4149 39.0469 72.3404 39.0237C72.2659 39.0006 72.1982 38.9596 72.1431 38.9042C72.0879 38.8488 72.0471 38.7808 72.024 38.706C72.001 38.6312 71.9965 38.5519 72.0108 38.4749V34.3665C72.0176 34.0031 72.0671 33.6418 72.1581 33.2901C72.2809 32.8081 72.4339 32.3344 72.6164 31.8718L73.9665 28.3221C74.0155 28.1636 74.1164 28.0263 74.2529 27.9326C74.4062 27.8436 74.5816 27.8003 74.7585 27.8077H78.9332C79.1054 27.801 79.2759 27.8444 79.4242 27.9326C79.5612 28.0261 79.6627 28.1634 79.7122 28.3221L81.0623 31.8603C81.244 32.3231 81.3971 32.7968 81.5205 33.2786C81.6116 33.6303 81.661 33.9916 81.6678 34.355V38.4634C81.6822 38.5404 81.6777 38.6197 81.6546 38.6945C81.6316 38.7693 81.5907 38.8373 81.5356 38.8927C81.4805 38.9481 81.4127 38.9891 81.3382 39.0122C81.2638 39.0354 81.1848 39.0399 81.1081 39.0255H78.7614C78.5981 39.0389 78.4356 38.9915 78.3048 38.8924C78.2511 38.8357 78.2101 38.768 78.1847 38.694C78.1593 38.62 78.15 38.5414 78.1575 38.4634V36.2925H75.4099V38.4749ZM76.2936 31.0879L75.5653 33.456H78.0021L77.2722 31.0879C77.2431 31.0117 77.1978 30.9428 77.1396 30.8858C77.0951 30.8446 77.0365 30.8223 76.976 30.8233H76.5881C76.5278 30.8231 76.4694 30.8454 76.4245 30.8858C76.3679 30.9438 76.3234 31.0125 76.2936 31.0879Z" fill="white"/>
<path d="M38.2073 50.8743C37.7164 50.7395 37.4644 50.6689 36.9701 50.521C36.8911 50.5039 36.8205 50.4598 36.7705 50.3961C36.7538 50.3638 36.7443 50.3283 36.7426 50.292C36.7409 50.2556 36.7471 50.2194 36.7607 50.1857L38.1288 45.7206C38.1366 45.6868 38.1511 45.6548 38.1713 45.6266C38.1915 45.5984 38.2171 45.5745 38.2466 45.5563C38.3144 45.5295 38.3899 45.5295 38.4577 45.5563C39.3169 45.8159 39.7505 45.9326 40.6212 46.1413C41.2643 46.2958 41.68 46.5144 41.8698 46.8168C42.0615 47.1382 42.1203 47.5222 42.0335 47.8866L41.8584 48.7921C41.8313 48.9779 41.7657 49.1559 41.6659 49.3147C41.5662 49.4735 41.4344 49.6095 41.279 49.7141C40.9681 49.9162 40.4608 49.9425 39.7505 49.7732C39.3922 49.6878 39.2138 49.6417 38.857 49.5481L38.5543 50.7067C38.5484 50.7426 38.5349 50.7767 38.5145 50.8068C38.4942 50.8369 38.4675 50.8622 38.4364 50.8809C38.3615 50.9049 38.2807 50.9026 38.2073 50.8743ZM39.4494 47.2309C39.3398 47.6516 39.2858 47.862 39.1745 48.2827C39.4462 48.355 39.582 48.3895 39.8536 48.4552C39.9044 48.4758 39.9594 48.4832 40.0137 48.4769C40.068 48.4706 40.1199 48.4507 40.1646 48.4191C40.227 48.3591 40.2702 48.2819 40.289 48.1972L40.3757 47.8242C40.3958 47.7404 40.3918 47.6527 40.3642 47.5711C40.3364 47.4906 40.2513 47.433 40.1106 47.3985C39.8536 47.3328 39.7129 47.2999 39.4494 47.2309Z" fill="white"/>
<path d="M42.3313 51.7781C42.2507 51.7728 42.1749 51.7376 42.1186 51.6795C42.0983 51.6495 42.0848 51.6155 42.0788 51.5798C42.0729 51.544 42.0747 51.5074 42.0842 51.4725C42.1431 51.1339 42.1726 50.9663 42.2331 50.6278C42.2358 50.5917 42.2461 50.5567 42.2633 50.525C42.2805 50.4932 42.3043 50.4655 42.333 50.4437C42.4038 50.4098 42.4842 50.4017 42.5604 50.4207C42.873 50.4749 43.0285 50.4996 43.341 50.5472C43.4851 49.5891 43.5571 49.1093 43.6994 48.1512C43.4049 48.1068 43.2576 48.0838 42.963 48.0329C42.8883 48.0276 42.8185 47.9934 42.7683 47.9375C42.75 47.907 42.7381 47.873 42.7333 47.8377C42.7286 47.8024 42.731 47.7665 42.7404 47.7321C42.7994 47.387 42.8305 47.2161 42.891 46.8726C42.8937 46.8371 42.9035 46.8025 42.9198 46.7709C42.9361 46.7392 42.9586 46.7113 42.9859 46.6886C43.017 46.6704 43.0515 46.6587 43.0872 46.6542C43.1229 46.6497 43.1591 46.6524 43.1938 46.6623C44.4179 46.8693 45.0332 46.9482 46.2655 47.0583C46.3381 47.0582 46.408 47.0865 46.4602 47.1372C46.5015 47.1958 46.518 47.2685 46.506 47.3393C46.4782 47.6877 46.4635 47.8603 46.4357 48.2087C46.4357 48.2445 46.4286 48.2799 46.4148 48.3129C46.4011 48.3459 46.3809 48.3759 46.3555 48.401C46.2933 48.4421 46.2176 48.4574 46.1444 48.4437C45.8531 48.4191 45.7074 48.4043 45.4178 48.373C45.3147 49.3361 45.2639 49.8176 45.1608 50.7806C45.4685 50.8135 45.6223 50.8299 45.9316 50.8562C46.0098 50.8566 46.0853 50.8852 46.1444 50.9367C46.1667 50.9652 46.1829 50.998 46.1919 51.0331C46.2009 51.0682 46.2026 51.1047 46.1967 51.1405L46.1264 51.9951C46.1266 52.0311 46.1191 52.0668 46.1045 52.0997C46.0898 52.1326 46.0682 52.1619 46.0413 52.1857C45.9718 52.227 45.89 52.2421 45.8105 52.2284C44.4146 52.1035 43.7174 52.0148 42.3313 51.7781Z" fill="white"/>
<path d="M51.2944 52.3731C49.9369 52.4344 48.5771 52.4202 47.2212 52.3303C47.1406 52.3331 47.0617 52.3068 46.9986 52.2564C46.9752 52.2288 46.958 52.1964 46.9481 52.1616C46.9382 52.1267 46.9359 52.0901 46.9413 52.0542C46.9659 51.6681 46.9773 51.4758 47.0019 51.0896C47.0065 51.0066 47.0282 50.9254 47.0657 50.8513C47.1083 50.7769 47.1637 50.7107 47.2294 50.6557C48.0476 49.8521 48.4371 49.4396 49.1784 48.5999C48.5353 48.59 48.2129 48.5801 47.5714 48.5456C47.497 48.5484 47.4244 48.5226 47.3685 48.4733C47.3466 48.4449 47.3307 48.4124 47.3217 48.3776C47.3127 48.3429 47.3108 48.3067 47.3161 48.2712L47.3685 47.4002C47.3671 47.3645 47.3729 47.329 47.3856 47.2957C47.3982 47.2623 47.4175 47.2319 47.4421 47.2063C47.5008 47.164 47.5736 47.1463 47.645 47.157C48.7566 47.2252 49.8708 47.2367 50.9835 47.1915C51.0551 47.1823 51.1274 47.2018 51.1848 47.2457C51.2326 47.2992 51.2573 47.3695 51.2535 47.4413C51.2699 47.8702 51.2781 48.0855 51.2961 48.5144C51.3014 48.5993 51.2891 48.6843 51.2601 48.7642C51.2276 48.8423 51.181 48.9136 51.1226 48.9745C50.4467 49.8094 50.0916 50.2202 49.3454 51.0238C50.1063 51.0238 50.4909 51.0238 51.2486 50.9976C51.3261 50.988 51.4045 51.0067 51.4695 51.0501C51.4949 51.0757 51.5147 51.1063 51.5277 51.1399C51.5407 51.1736 51.5465 51.2096 51.5448 51.2457C51.5595 51.5892 51.5677 51.7601 51.5808 52.1035C51.5859 52.1394 51.5831 52.1759 51.5727 52.2105C51.5622 52.2452 51.5443 52.2771 51.5203 52.304C51.4557 52.3535 51.3755 52.378 51.2944 52.3731Z" fill="white"/>
<path d="M56.6556 51.8537C55.3134 52.0829 53.9596 52.2371 52.6003 52.3155C52.521 52.3279 52.4398 52.3116 52.3712 52.2695C52.3444 52.2451 52.3231 52.2151 52.309 52.1816C52.2948 52.1481 52.2882 52.1119 52.2894 52.0756C52.2681 51.6894 52.2567 51.4971 52.2338 51.1109C52.2276 51.0283 52.2394 50.9453 52.2681 50.8677C52.3002 50.7879 52.3468 50.7149 52.4056 50.6524C53.1191 49.7551 53.4579 49.2982 54.0928 48.373C53.453 48.4437 53.1322 48.4716 52.4891 48.516C52.4157 48.5278 52.3407 48.5107 52.2796 48.4683C52.2546 48.4429 52.235 48.4125 52.222 48.3792C52.2091 48.3458 52.2031 48.3102 52.2043 48.2744C52.183 47.926 52.1716 47.7518 52.1503 47.4034C52.1401 47.3327 52.1577 47.2608 52.1994 47.2029C52.2526 47.1531 52.323 47.1259 52.3958 47.1273C53.5088 47.0609 54.6176 46.9369 55.7179 46.7559C55.7884 46.7385 55.8628 46.7491 55.9257 46.7855C55.9528 46.8087 55.975 46.837 55.991 46.8689C56.0071 46.9008 56.0166 46.9356 56.019 46.9712C56.0861 47.3952 56.1205 47.6072 56.1826 48.0312C56.1993 48.1147 56.1993 48.2007 56.1826 48.2843C56.1601 48.3657 56.1223 48.4421 56.0714 48.5094C55.4986 49.4199 55.1942 49.8701 54.5494 50.7592C55.3071 50.6738 55.6852 50.6228 56.4396 50.5028C56.5159 50.4833 56.5967 50.4921 56.6671 50.5275C56.6953 50.5496 56.7186 50.5774 56.7355 50.6091C56.7524 50.6408 56.7626 50.6757 56.7652 50.7116L56.9043 51.5579C56.9136 51.593 56.9151 51.6296 56.9089 51.6654C56.9027 51.7011 56.8889 51.7351 56.8683 51.765C56.8098 51.8184 56.7346 51.8497 56.6556 51.8537Z" fill="white"/>
<path d="M59.4753 51.0452C59.4862 51.0797 59.4897 51.1162 59.4854 51.1522C59.4812 51.1882 59.4694 51.2229 59.4507 51.2539C59.3963 51.3135 59.3227 51.3519 59.2429 51.3624C58.7683 51.4675 58.5294 51.5168 58.0532 51.6089C57.9755 51.6309 57.8925 51.6245 57.8191 51.5908C57.7894 51.57 57.7645 51.5429 57.7464 51.5114C57.7283 51.4798 57.7174 51.4447 57.7144 51.4084L57.3642 49.5366C57.3375 49.3703 57.3315 49.2014 57.3462 49.0337C57.3665 48.8028 57.401 48.5734 57.4493 48.3467C57.5868 47.6549 57.6506 47.3081 57.7668 46.6146C57.7749 46.5376 57.809 46.4658 57.8633 46.4108C57.9245 46.3545 58.0007 46.3174 58.0826 46.304C58.8501 46.1397 59.2282 46.0411 59.9924 45.834C60.0704 45.8112 60.1533 45.8112 60.2313 45.834C60.3049 45.857 60.3681 45.9053 60.4097 45.9704C60.8336 46.5308 61.0512 46.8085 61.4947 47.3574C61.6415 47.5365 61.7776 47.7242 61.9022 47.9195C61.9936 48.0606 62.0662 48.2131 62.1182 48.373C62.3424 49.1011 62.4537 49.4642 62.6763 50.1923C62.6899 50.226 62.696 50.2622 62.6943 50.2985C62.6927 50.3348 62.6831 50.3704 62.6665 50.4026C62.6164 50.4663 62.5458 50.5105 62.4668 50.5275C61.9857 50.6721 61.7451 50.7412 61.2607 50.8726C61.1795 50.8999 61.0916 50.8999 61.0103 50.8726C60.978 50.8567 60.9498 50.8337 60.9276 50.8052C60.9055 50.7767 60.8902 50.7436 60.8827 50.7083L60.6372 49.7223C60.0857 49.8669 59.8091 49.9343 59.2543 50.0608C59.3427 50.4536 59.3869 50.6508 59.4753 51.0452ZM59.148 47.6138C59.1103 48.0739 59.0907 48.304 59.0449 48.7642C59.5211 48.6541 59.76 48.5998 60.233 48.4716C59.9826 48.0854 59.8582 47.8899 59.6127 47.5004C59.5901 47.4694 59.5611 47.4436 59.5276 47.4248C59.5017 47.4122 59.4721 47.4093 59.4442 47.4166L59.2609 47.461C59.2321 47.468 59.2067 47.4848 59.1889 47.5086C59.1668 47.5403 59.1512 47.576 59.1431 47.6138H59.148Z" fill="white"/>
<path d="M50.2945 15.5563L47.7612 16.894L48.244 14.0608L46.1951 12.0543L49.0279 11.6418L50.2945 9.06329L51.5612 11.6418L54.394 12.0543L52.3434 14.0608L52.8278 16.894L50.2945 15.5563Z" fill="white"/>
<path d="M57.9304 18.613L56.0779 19.5908L56.4314 17.5201L54.934 16.0542L57.0042 15.7519L57.9304 13.8685L58.8551 15.7519L60.9269 16.0542L59.4278 17.5201L59.7813 19.5908L57.9304 18.613Z" fill="white"/>
<path d="M41.0859 18.613L39.2334 19.5908L39.5869 17.5201L38.0895 16.0542L40.1597 15.7519L41.0859 13.8685L42.0106 15.7519L44.0807 16.0542L42.5833 17.5201L42.9368 19.5908L41.0859 18.613Z" fill="white"/>
</svg>
